<svg width="18" height="25" viewBox="0 0 18 25" fill="none" xmlns="http://www.w3.org/2000/svg">
<path d="M13 10.8167H5C4.45 10.8167 4 11.3575 4 12.0185C4 12.6795 4.45 13.2204 5 13.2204H13C13.55 13.2204 14 12.6795 14 12.0185C14 11.3575 13.55 10.8167 13 10.8167ZM16 2.4037H15V1.20185C15 0.540833 14.55 0 14 0C13.45 0 13 0.540833 13 1.20185V2.4037H5V1.20185C5 0.540833 4.55 0 4 0C3.45 0 3 0.540833 3 1.20185V2.4037H2C0.89 2.4037 0 3.48537 0 4.8074V21.6333C0 22.9553 0.89 24.037 2 24.037H16C17.1 24.037 18 22.9553 18 21.6333V4.8074C18 3.48537 17.1 2.4037 16 2.4037ZM15 21.6333H3C2.45 21.6333 2 21.0925 2 20.4315V8.41295H16V20.4315C16 21.0925 15.55 21.6333 15 21.6333ZM10 15.6241H5C4.45 15.6241 4 16.1649 4 16.8259C4 17.4869 4.45 18.0278 5 18.0278H10C10.55 18.0278 11 17.4869 11 16.8259C11 16.1649 10.55 15.6241 10 15.6241Z" fill="#323232"/>
</svg>
