<svg width="18" height="18" viewBox="0 0 18 18" fill="none" xmlns="http://www.w3.org/2000/svg">
<g clip-path="url(#clip0_527_144)">
<path d="M2.23242 11.5684L11.2026 2.60046L15.3983 6.79728L6.42783 15.7652L2.23242 11.5684Z" fill="#FFCE31"/>
<path d="M17.2354 1.29375L16.701 0.759375C15.6885 -0.253125 14.0572 -0.253125 13.0166 0.759375L11.1885 2.5875L15.4072 6.80625L17.2354 4.97813C18.2479 3.96563 18.2479 2.30625 17.2354 1.29375Z" fill="#ED4C5C"/>
<path d="M10.0635 3.74426L11.2166 2.59058L15.4128 6.78683L14.2597 7.94023L10.0635 3.74426Z" fill="#93A2AA"/>
<path d="M10.5029 4.18124L11.6561 3.02783L14.9577 6.32914L13.804 7.48227L10.5029 4.18124Z" fill="#C7D3D8"/>
<path d="M2.22363 11.5587L0.395508 16.34L1.66113 17.6056L6.44238 15.7775L2.22363 11.5587Z" fill="#FED0AC"/>
<path d="M0.0840415 17.185C-0.169084 17.86 0.168416 18.1694 0.843417 17.9163L3.14967 17.0444L0.984042 14.8788L0.0840415 17.185Z" fill="#333333"/>
<path d="M2.21484 11.5809L10.0505 3.74524L11.4427 5.13743L3.60703 12.973L2.21484 11.5809Z" fill="#FFDF85"/>
<path d="M5.03613 14.3835L12.8718 6.54785L14.2639 7.94004L6.42832 15.7757L5.03613 14.3835Z" fill="#FF8736"/>
</g>
<defs>
<clipPath id="clip0_527_144">
<rect width="18" height="18" fill="white"/>
</clipPath>
</defs>
</svg>
