<?xml version="1.0" encoding="UTF-8"?>
<svg xmlns="http://www.w3.org/2000/svg" id="Layer_1" data-name="Layer 1" viewBox="0 0 64 64" width="512" height="512"><defs><style>.cls-1{fill:#ffe8cc;}.cls-2{fill:#dd100b;}.cls-3{fill:#fff;}.cls-4{fill:#fcdc24;}.cls-5{fill:#f9e8a2;}.cls-6{opacity:0.05;}</style></defs><path class="cls-1" d="M45,9.705a2.741,2.741,0,0,1-1.132-.374A2.99,2.99,0,1,0,39.15,6.11a2.349,2.349,0,0,0-.7-1.734A4.979,4.979,0,0,0,30.28,6.419L30.418,6c0-1.657-1.761-3-3.418-3a3,3,0,0,0-3,3,2.977,2.977,0,0,0-2.623,4.427l-.016,0A2.374,2.374,0,0,0,20.133,10a3.032,3.032,0,0,0-3.059,2.338,2.737,2.737,0,0,0,1.308,3L32,22.147,46.414,15.81A3.319,3.319,0,0,0,48,13,3.266,3.266,0,0,0,45,9.705Z"/><path class="cls-2" d="M36,15a4,4,0,0,0-4,4V30a16.041,16.041,0,0,1,7.736,1.842L40,19A4,4,0,0,0,36,15Z"/><path class="cls-2" d="M32,46V61h7l.354-16.646A16.263,16.263,0,0,1,32,46Z"/><path class="cls-3" d="M44,15a4,4,0,0,0-4,4l-.264,12.842C42.356,33.3,44,35.5,44,38c0,2.621-1.808,4.9-4.646,6.354L39,61h5l4-42A4,4,0,0,0,44,15Z"/><path class="cls-3" d="M32,61V46a16.251,16.251,0,0,1-7.374-1.656L25,61Z"/><path class="cls-2" d="M20,15a4,4,0,0,0-4,4l4,42h5l-.374-16.656C21.8,42.893,20,40.615,20,38c0-2.51,1.652-4.714,4.283-6.17L24,19A4,4,0,0,0,20,15Z"/><path class="cls-3" d="M32,19a4,4,0,0,0-8,0l.283,12.83A16.062,16.062,0,0,1,32,30Z"/><path class="cls-4" d="M20,38c0,4.486,5.271,8,12,8s12-3.514,12-8-5.271-8-12-8S20,33.514,20,38Zm12-4c4.956,0,8,2.33,8,4s-3.044,4-8,4-8-2.33-8-4S27.044,34,32,34Z"/><ellipse class="cls-5" cx="32" cy="38" rx="8" ry="4"/><path class="cls-6" d="M47.387,16.892,43.013,35.579A27.727,27.727,0,0,1,19.594,56.742L20,61H44l4-42A3.975,3.975,0,0,0,47.387,16.892Z"/><path d="M32,33c-5.384,0-9,2.585-9,5s3.616,5,9,5,9-2.585,9-5S37.384,33,32,33Zm0,8c-4.618,0-7-2.1-7-3s2.382-3,7-3,7,2.1,7,3S36.618,41,32,41Z"/><path d="M15.005,19.1l4,42A1,1,0,0,0,20,62H44A1,1,0,0,0,45,61.1L49,19a4.953,4.953,0,0,0-1.123-3.118A4.443,4.443,0,0,0,49,13a4.325,4.325,0,0,0-3.432-4.23A3.938,3.938,0,0,0,46,7a3.979,3.979,0,0,0-6.575-3.036,5.97,5.97,0,0,0-8.763-.1A4.775,4.775,0,0,0,27,2a4,4,0,0,0-3.892,3.108A4,4,0,0,0,20,9a4,4,0,0,0-4,4,3.5,3.5,0,0,0,.78,2.216A5.071,5.071,0,0,0,15.005,19.1ZM17,19a3,3,0,0,1,6,0l0,.011s0,.008,0,.013l.291,12.254C20.649,32.914,19,35.3,19,38c0,2.815,1.78,5.288,4.617,6.927L23.976,60H20.909ZM31,60H25.977l-.336-14.118A17.575,17.575,0,0,0,31,46.966Zm2-13.034a17.575,17.575,0,0,0,5.359-1.084L38.023,60H33Zm6.1-3.581a.837.837,0,0,0-.235.118A15.42,15.42,0,0,1,32,45a15.425,15.425,0,0,1-6.86-1.5.888.888,0,0,0-.24-.121C22.5,42.109,21,40.188,21,38c0-2.125,1.424-3.995,3.7-5.269.019-.008.034-.021.053-.03A15.14,15.14,0,0,1,32,31a15.14,15.14,0,0,1,7.246,1.7c.019.009.034.022.053.03C41.576,34.005,43,35.875,43,38,43,40.188,41.5,42.111,39.1,43.385Zm-.366-13.112A17.388,17.388,0,0,0,33,29.034V19a3,3,0,0,1,6,0ZM31,29.034a17.388,17.388,0,0,0-5.731,1.239L25,19a3,3,0,0,1,6,0ZM43.091,60H40.024l.359-15.073C43.22,43.288,45,40.815,45,38c0-2.7-1.649-5.086-4.291-6.722L41,19.024c0-.005,0-.008,0-.013L41,19a3,3,0,0,1,6.005-.095ZM18,13a2,2,0,0,1,2-2,.9.9,0,0,1,.595.149c.022.014.047.024.069.037a4.006,4.006,0,0,0,.6.736,1,1,0,1,0,1.367-1.46A2,2,0,0,1,23.2,7.171a3.932,3.932,0,0,0,.205.581,1,1,0,0,0,.9.562.986.986,0,0,0,.436-.1A1,1,0,0,0,25.2,6.876,1.971,1.971,0,0,1,25,6a2,2,0,0,1,2-2,2.453,2.453,0,0,1,2.4,1.867,5.96,5.96,0,0,0,.147,4.636,1,1,0,1,0,1.816-.836,4,4,0,0,1,6.883-4A3.958,3.958,0,0,0,38,7a1,1,0,0,0,2,0,2,2,0,1,1,2,2,.994.994,0,0,0-.675,1.729,3.55,3.55,0,0,0-.562,1.871,1,1,0,1,0,2,0A2.152,2.152,0,0,1,45,10.705,2.279,2.279,0,0,1,47,13a2.434,2.434,0,0,1-.658,1.61A4.926,4.926,0,0,0,44,14a5,5,0,0,0-4,2,5,5,0,0,0-8,0,5,5,0,0,0-8,0,5,5,0,0,0-4-2,4.912,4.912,0,0,0-1.414.229A1.585,1.585,0,0,1,18,13Z"/><path d="M37,14a3.973,3.973,0,0,0,2.828-1.172,1,1,0,1,0-1.414-1.414,2,2,0,1,1-2.192-3.257,1,1,0,0,0-.78-1.842A4,4,0,0,0,37,14Z"/><path d="M24,13a1,1,0,0,0,0,2,3,3,0,0,0,0-6,1,1,0,0,0,0,2,1,1,0,0,1,0,2Z"/><path d="M27,8h1a1,1,0,0,0,0-2H27a1,1,0,0,0,0,2Z"/><path d="M30,14h1a1,1,0,0,0,0-2H30a1,1,0,0,0,0,2Z"/></svg>
