<svg width="22" height="22" viewBox="0 0 22 22" fill="none" xmlns="http://www.w3.org/2000/svg">
<path d="M19.9379 18.9655L14.7459 13.7735C15.9936 12.2756 16.6158 10.3544 16.483 8.40951C16.3502 6.46462 15.4728 4.64579 14.0331 3.33137C12.5935 2.01696 10.7026 1.30817 8.75364 1.35245C6.80472 1.39673 4.94791 2.19068 3.56946 3.56913C2.19102 4.94757 1.39707 6.80439 1.35279 8.7533C1.3085 10.7022 2.01729 12.5932 3.33171 14.0328C4.64612 15.4724 6.46496 16.3499 8.40985 16.4827C10.3547 16.6154 12.2759 15.9932 13.7738 14.7456L18.9658 19.9376L19.9379 18.9655ZM2.75042 8.93758C2.75042 7.71381 3.11331 6.51752 3.7932 5.49999C4.47309 4.48246 5.43944 3.68939 6.57006 3.22108C7.70068 2.75276 8.94478 2.63022 10.145 2.86897C11.3453 3.10772 12.4478 3.69702 13.3131 4.56236C14.1785 5.42769 14.7678 6.5302 15.0065 7.73046C15.2453 8.93072 15.1227 10.1748 14.6544 11.3054C14.1861 12.4361 13.393 13.4024 12.3755 14.0823C11.358 14.7622 10.1617 15.1251 8.93792 15.1251C7.29745 15.1233 5.72469 14.4708 4.5647 13.3108C3.40472 12.1508 2.75224 10.578 2.75042 8.93758Z" fill="black"/>
</svg>
